# xmcd
#
# Track frame offsets:
#	150
#	16639
#	34572
#	51475
#	63250
#	76904
#	96289
#	114342
#	127594
#	140208
#	152917
#	168540
#
# Disc length: 2463 seconds
#
# Revision: 0
# Processed by: cddbd v1.5.1PL0 Copyright (c) Steve Scherf et al.
# Submitted via: EasyCDDAExtractor 7.5.0.1
#
DISCID=93099d0c
DTITLE=Leah Larson - Long Journey
DYEAR=1900
DGENRE=Bluegrass
TTITLE0=A Little Ways Down The Road
TTITLE1=Long Journey
TTITLE2=Sing Me A Song (That'll Just Keep Me Lonesome)
TTITLE3=Sun's Gonna Shine In My Backdoor Someday
TTITLE4=Pretty Saro
TTITLE5=Crippled Bird
TTITLE6=Fare Thee Well Northumberland
TTITLE7=Dangerous Boys
TTITLE8=Early In The Spring
TTITLE9=This Lonely Heart of Mine
TTITLE10=The Soldier
TTITLE11=Let That Liar Alone
EXTD=
EXTT0=
EXTT1=
EXTT2=
EXTT3=
EXTT4=
EXTT5=
EXTT6=
EXTT7=
EXTT8=
EXTT9=
EXTT10=
EXTT11=
PLAYORDER=
